<svg id="Layer_1" data-name="Layer 1" xmlns="http://www.w3.org/2000/svg" viewBox="0 0 96 96"><defs><style>.cls-1{fill:none;}</style></defs><rect class="cls-1" width="96" height="96"/><rect class="cls-1" width="96" height="96"/><path class="cls-1" d="M11.3,55.74V68.56H86.16V22.72H45.59v33ZM73.38,44a1,1,0,0,1,1-1h4.25a1,1,0,0,1,1,1v4.25a1,1,0,0,1-1,1H74.38a1,1,0,0,1-1-1Zm-8.57,0a1,1,0,0,1,1-1h4.25a1,1,0,0,1,1,1v4.25a1,1,0,0,1-1,1H65.81a1,1,0,0,1-1-1Zm-8.57,0a1,1,0,0,1,1-1h4.25a1,1,0,0,1,1,1v4.25a1,1,0,0,1-1,1H57.24a1,1,0,0,1-1-1Z"/><polygon points="18.45 69.57 16.27 73.56 10.71 83.75 15.11 86.15 21.97 73.56 22.84 71.96 18.45 69.57"/><polygon points="74.92 71.96 75.79 73.56 82.66 86.15 87.05 83.75 81.49 73.56 79.31 69.57 74.92 71.96"/><rect x="56.24" y="42.96" width="6.25" height="6.25" rx="1"/><rect x="64.81" y="42.96" width="6.25" height="6.25" rx="1"/><rect x="73.38" y="42.96" width="6.25" height="6.25" rx="1"/><polygon class="cls-1" points="11.3 55.74 11.3 68.56 86.16 68.56 86.16 22.72 45.59 22.72 45.59 55.74 11.3 55.74"/><path d="M88.66,17.72H45.59v5H86.16V68.56H11.3V55.74h-5V71.06a2.49,2.49,0,0,0,2.5,2.5h7.47l2.18-4L22.84,72,22,73.56H75.79L74.92,72l4.39-2.39,2.18,4h7.17a2.49,2.49,0,0,0,2.5-2.5V20.22A2.5,2.5,0,0,0,88.66,17.72Z"/><path d="M25.26,52.32H19a3.85,3.85,0,0,1-3.67-2.85l-.92-3.6L14,45.48l-3.74,1A3.86,3.86,0,0,1,6,44.76L2.82,39.31a3.85,3.85,0,0,1,.63-4.59l2.7-2.67a2.3,2.3,0,0,0,.12-.45v0L3.45,28.8a3.85,3.85,0,0,1-.63-4.59L6,18.77A3.83,3.83,0,0,1,10.25,17l3.56,1,.54-.16,1-3.79A3.85,3.85,0,0,1,19,11.2h6.26a3.85,3.85,0,0,1,3.67,2.85l.92,3.6a5.16,5.16,0,0,0,.41.39L34,17a3.83,3.83,0,0,1,4.3,1.76l3.13,5.44a3.85,3.85,0,0,1-.63,4.59L38,31.58v0a2.3,2.3,0,0,0,.12.45l2.7,2.67a3.85,3.85,0,0,1,.63,4.59l-3.13,5.45A3.84,3.84,0,0,1,34,46.52l-3.56-1a4.72,4.72,0,0,0-.54.17l-1,3.78A3.85,3.85,0,0,1,25.26,52.32Zm-5.32-5h4.38l.78-3a4.79,4.79,0,0,1,2.21-2.92s2.42-1.24,4.14-.75l3,.83,2.2-3.82-2.23-2.2A6.43,6.43,0,0,1,33,31.61h0a5.14,5.14,0,0,1,1.44-3.52l2.23-2.2-2.2-3.82-3,.84a4.79,4.79,0,0,1-3.65-.47S25.55,21,25.1,19.23l-.78-3H19.94l-.78,3A4.81,4.81,0,0,1,17,22.16s-2.4,1.24-4.15.75l-3-.84-2.2,3.82,2.23,2.2a5.13,5.13,0,0,1,1.43,3.52,6.24,6.24,0,0,1-1.44,3.82l-2.22,2.2,2.2,3.82,3-.83a4.8,4.8,0,0,1,3.66.46s2.25,1.47,2.7,3.22ZM6.33,31.87h0Zm31.59,0h0ZM6.29,31.66Zm4-10.4Z"/><path d="M22.13,41.32a9.56,9.56,0,1,1,9.56-9.56A9.57,9.57,0,0,1,22.13,41.32Zm0-15.12a5.56,5.56,0,1,0,5.56,5.56A5.57,5.57,0,0,0,22.13,26.2Z"/></svg>