<?xml version="1.0" encoding="UTF-8"?>
<svg id="OLED_Glare_free" data-name="OLED Glare free" xmlns="http://www.w3.org/2000/svg" viewBox="0 0 54.02 54">
  <defs>
    <style>
      .cls-1 {
        fill: #fff;
        stroke-width: 0px;
      }
    </style>
  </defs>
  <rect class="cls-1" x="7.41" y="41.42" width="3.68" height="1.5" transform="translate(-27.11 18.89) rotate(-45)"/>
  <polygon class="cls-1" points="16.26 21.74 15.2 22.8 21.38 28.97 18.87 31.48 19.93 32.54 23.5 28.97 16.26 21.74"/>
  <rect class="cls-1" x="11.22" y="37.6" width="3.68" height="1.5" transform="translate(-23.29 20.47) rotate(-45)"/>
  <polygon class="cls-1" points="7.25 45.22 6.19 44.16 4.4 45.95 2.43 43.98 2.43 48.98 7.43 48.98 5.46 47.01 7.25 45.22"/>
  <rect class="cls-1" x="15.04" y="33.78" width="3.68" height="1.5" transform="translate(-19.47 22.05) rotate(-45)"/>
  <polygon class="cls-1" points="54.02 0 38.37 6.58 38.37 47.42 54.02 54 54.02 0"/>
  <path class="cls-1" d="m5.16,11.94c0,2.8,2.27,5.08,5.08,5.08s5.08-2.27,5.08-5.08-2.27-5.08-5.08-5.08c-2.8,0-5.08,2.28-5.08,5.08Z"/>
  <polygon class="cls-1" points="10.24 1.7 8.18 5.25 12.3 5.25 10.24 1.7"/>
  <polygon class="cls-1" points="10.24 22.19 12.3 18.64 8.18 18.64 10.24 22.19"/>
  <polygon class="cls-1" points="3.55 9.88 0 11.94 3.55 14.01 3.55 9.88"/>
  <polygon class="cls-1" points="16.93 14 20.48 11.94 16.93 9.88 16.93 14"/>
  <polygon class="cls-1" points="6.97 5.76 3 4.7 4.05 8.67 6.97 5.76"/>
  <polygon class="cls-1" points="13.52 18.13 17.48 19.19 16.43 15.22 13.52 18.13"/>
  <polygon class="cls-1" points="3 19.19 6.97 18.13 4.05 15.22 3 19.19"/>
  <polygon class="cls-1" points="17.48 4.7 13.52 5.76 16.43 8.67 17.48 4.7"/>
  <polygon class="cls-1" points="35.37 .28 35.37 7.84 35.37 46.16 35.37 53.9 36.87 53.9 36.87 46.79 36.87 7.21 36.87 .28 35.37 .28"/>
  <rect class="cls-1" x="26.31" y="25.86" width=".01" height=".25"/>
  <polygon class="cls-1" points="26.32 11.64 26.32 25.86 26.32 26.1 26.56 25.86 33.87 18.55 33.87 8.47 26.32 11.64"/>
  <polygon class="cls-1" points="26.31 36.12 26.31 38.63 26.32 38.63 26.32 42.36 33.87 45.53 33.87 38.63 33.87 28.57 31.18 31.26 26.31 36.12"/>
  <polygon class="cls-1" points="27.02 27.51 26.31 28.22 26.31 31.75 28.88 29.18 32.21 25.86 33.87 24.19 33.87 20.66 28.68 25.86 27.02 27.51"/>
</svg>