<?xml version="1.0" encoding="utf-8"?>
<!-- Generator: Adobe Illustrator 25.0.0, SVG Export Plug-In . SVG Version: 6.00 Build 0)  -->
<svg version="1.1" id="NQ4_AI_Gen2_Processor" xmlns="http://www.w3.org/2000/svg" xmlns:xlink="http://www.w3.org/1999/xlink"
	 x="0px" y="0px" viewBox="0 0 60 60" style="enable-background:new 0 0 60 60;" xml:space="preserve">
<style type="text/css">
	.st0{fill:#FFFFFF;}
</style>
<path class="st0" d="M29.7,39.5c-0.2,0-0.5,0.1-0.6,0.2s-0.3,0.3-0.4,0.5h2.1c-0.1-0.2-0.2-0.4-0.4-0.5S30,39.5,29.7,39.5z"/>
<polygon class="st0" points="32,19.7 30.3,22.1 32,22.1 "/>
<path class="st0" d="M24.9,30.3c-0.4,0-0.8,0.1-1.1,0.3s-0.5,0.5-0.6,0.9h3.3c-0.1-0.4-0.3-0.7-0.6-0.9
	C25.6,30.4,25.3,30.3,24.9,30.3z"/>
<path class="st0" d="M16.1,38.9c-0.1-0.1-0.2-0.1-0.3-0.2s-0.2-0.1-0.3-0.1h-0.6v1.7h0.6c0.1,0,0.2,0,0.3-0.1c0.1,0,0.2-0.1,0.3-0.2
	c0.1-0.1,0.1-0.2,0.2-0.3c0-0.1,0.1-0.2,0.1-0.3c0-0.1,0-0.2-0.1-0.3C16.2,39.1,16.1,39,16.1,38.9z"/>
<path class="st0" d="M22.6,39.8c-0.1-0.1-0.2-0.2-0.3-0.2s-0.3-0.1-0.4-0.1s-0.3,0-0.4,0.1s-0.2,0.1-0.3,0.2
	C21,39.9,21,40,20.9,40.2c0,0.1-0.1,0.3-0.1,0.4s0,0.3,0.1,0.4c0,0.1,0.1,0.2,0.2,0.3s0.2,0.2,0.3,0.2s0.3,0.1,0.4,0.1
	s0.3,0,0.4-0.1s0.2-0.1,0.3-0.2c0.1-0.1,0.2-0.2,0.2-0.3c0-0.1,0.1-0.3,0.1-0.4c0-0.2,0-0.3-0.1-0.4C22.8,40,22.7,39.9,22.6,39.8z"
	/>
<path class="st0" d="M40.9,39.8c-0.1-0.1-0.2-0.2-0.3-0.2s-0.3-0.1-0.4-0.1c-0.2,0-0.3,0-0.4,0.1s-0.2,0.1-0.3,0.2
	c-0.1,0.1-0.2,0.2-0.2,0.3c0,0.1-0.1,0.3-0.1,0.4s0,0.3,0.1,0.4c0,0.1,0.1,0.2,0.2,0.3s0.2,0.2,0.3,0.2s0.3,0.1,0.4,0.1
	c0.2,0,0.3,0,0.4-0.1s0.2-0.1,0.3-0.2c0.1-0.1,0.2-0.2,0.2-0.3c0-0.1,0.1-0.3,0.1-0.4c0-0.2,0-0.3-0.1-0.4
	C41.1,40,41,39.9,40.9,39.8z"/>
<polygon class="st0" points="39.7,22.4 41.6,22.4 40.6,19.6 "/>
<path class="st0" d="M8.6,8.5c-0.1,0-0.2,0.1-0.2,0.2v42.6c0,0.1,0.1,0.2,0.2,0.2h42.6c0.1,0,0.2-0.1,0.2-0.2V16.4l-7.9-7.9H8.6z
	 M35.4,28.1c0.4-0.3,0.9-0.4,1.5-0.4c0.4,0,0.7,0,1,0.2s0.5,0.2,0.8,0.4s0.4,0.4,0.5,0.6s0.2,0.5,0.2,0.8c0,0.3,0,0.5-0.2,0.8
	s-0.2,0.4-0.4,0.6c-0.2,0.2-0.4,0.4-0.6,0.5s-0.4,0.3-0.7,0.5c-0.2,0.1-0.4,0.2-0.6,0.4s-0.3,0.2-0.5,0.4s-0.2,0.3-0.3,0.4
	C36,33.5,36,33.6,36,33.8h3.3v1.3h-4.7v-1.3c0-0.3,0.1-0.6,0.2-0.8s0.3-0.5,0.5-0.7c0.2-0.2,0.4-0.4,0.6-0.6
	c0.2-0.2,0.5-0.3,0.7-0.5c0.2-0.1,0.3-0.2,0.5-0.4c0.2-0.1,0.3-0.2,0.4-0.4c0.1-0.1,0.2-0.2,0.3-0.4c0.1-0.1,0.1-0.2,0.1-0.4
	c0-0.2-0.1-0.4-0.2-0.6s-0.4-0.3-0.8-0.3c-0.3,0-0.6,0.1-0.8,0.3c-0.2,0.2-0.4,0.4-0.5,0.8l-1.2-0.6C34.7,28.8,35,28.4,35.4,28.1z
	 M28.9,22.1l3.1-4.4h1.4v4.4h1.1v1.2h-1.1V25H32v-1.7h-3.1C28.9,23.3,28.9,22.1,28.9,22.1z M28.5,29.2h1.3V30
	c0.2-0.2,0.4-0.5,0.7-0.6s0.6-0.2,1-0.2c0.7,0,1.3,0.2,1.7,0.7c0.4,0.4,0.6,1,0.6,1.8v3.5h-1.4v-3.3c0-0.5-0.1-0.8-0.3-1.1
	c-0.2-0.3-0.5-0.4-1-0.4c-0.4,0-0.7,0.1-1,0.4s-0.4,0.7-0.4,1.2v3.2h-1.4L28.5,29.2L28.5,29.2z M21.1,19.9c0.2-0.5,0.5-0.9,0.8-1.2
	s0.7-0.6,1.2-0.8c0.5-0.2,0.9-0.3,1.5-0.3c0.5,0,1,0.1,1.5,0.3c0.5,0.2,0.9,0.5,1.2,0.8s0.6,0.7,0.8,1.2c0.2,0.5,0.3,0.9,0.3,1.5
	c0,0.5-0.1,0.9-0.2,1.3c-0.1,0.4-0.4,0.8-0.6,1.1l1,1.3h-1.7L24,21.4h1.6l0.9,1.2c0.1-0.2,0.2-0.4,0.3-0.6c0.1-0.2,0.1-0.4,0.1-0.7
	c0-0.3-0.1-0.6-0.2-0.9c-0.1-0.3-0.3-0.5-0.5-0.8c-0.2-0.2-0.5-0.4-0.8-0.5c-0.3-0.1-0.6-0.2-0.9-0.2s-0.6,0.1-0.9,0.2
	c-0.3,0.1-0.5,0.3-0.8,0.5c-0.2,0.2-0.4,0.5-0.5,0.8c-0.1,0.3-0.2,0.6-0.2,0.9s0.1,0.6,0.2,0.9c0.1,0.3,0.3,0.5,0.5,0.8
	c0.2,0.2,0.5,0.4,0.8,0.5c0.3,0.1,0.6,0.2,0.9,0.2c0.2,0,0.5,0,0.7-0.1l0.9,1.1c-0.5,0.2-1,0.3-1.6,0.3c-0.5,0-1-0.1-1.5-0.3
	c-0.5-0.2-0.9-0.5-1.2-0.8s-0.6-0.7-0.8-1.2c-0.2-0.5-0.3-1-0.3-1.5C20.8,20.8,20.9,20.3,21.1,19.9z M23.7,33.6
	c0.3,0.2,0.7,0.4,1.2,0.4c0.4,0,0.7-0.1,1-0.3s0.5-0.4,0.6-0.8l1.1,0.6c-0.2,0.5-0.6,0.8-1.1,1.1c-0.5,0.3-1,0.4-1.7,0.4
	c-0.5,0-0.9-0.1-1.3-0.2c-0.4-0.2-0.7-0.4-1-0.6c-0.3-0.3-0.5-0.6-0.6-1c-0.1-0.4-0.2-0.8-0.2-1.2c0-0.4,0.1-0.8,0.2-1.2
	c0.2-0.4,0.4-0.7,0.6-1s0.6-0.5,1-0.6c0.4-0.2,0.8-0.2,1.2-0.2s0.8,0.1,1.2,0.2c0.4,0.1,0.7,0.4,1,0.6c0.3,0.3,0.5,0.6,0.6,1
	c0.1,0.4,0.2,0.8,0.2,1.2v0.5h-4.8C23.2,33,23.4,33.4,23.7,33.6z M14.1,17.7h1.5l3.2,5v-5h1.4V25h-1.5l-3.2-5.1V25h-1.4V17.7z
	 M14.2,30c0.2-0.5,0.4-0.9,0.8-1.2s0.7-0.6,1.2-0.8c0.5-0.2,1-0.3,1.5-0.3c0.4,0,0.7,0,1.1,0.1s0.6,0.2,0.9,0.4s0.5,0.4,0.8,0.6
	s0.4,0.5,0.6,0.8l-1.2,0.7c-0.2-0.4-0.5-0.7-0.9-1c-0.4-0.2-0.8-0.3-1.2-0.3c-0.3,0-0.6,0.1-0.9,0.2s-0.5,0.3-0.8,0.5
	c-0.2,0.2-0.4,0.5-0.5,0.8s-0.2,0.6-0.2,0.9c0,0.3,0.1,0.7,0.2,0.9c0.1,0.3,0.3,0.5,0.5,0.8c0.2,0.2,0.5,0.4,0.8,0.5
	c0.3,0.1,0.6,0.2,1,0.2c0.5,0,1-0.1,1.4-0.4c0.4-0.3,0.6-0.7,0.8-1.2h-2.3V31h3.8v0.5c0,0.5-0.1,1-0.2,1.4s-0.4,0.8-0.7,1.2
	c-0.3,0.3-0.7,0.6-1.1,0.8c-0.4,0.2-0.9,0.3-1.5,0.3c-0.6,0-1.1-0.1-1.5-0.3c-0.5-0.2-0.9-0.5-1.2-0.8c-0.3-0.3-0.6-0.7-0.8-1.2
	S14,31.9,14,31.4C13.9,30.9,14,30.4,14.2,30z M17,40.1c-0.1,0.2-0.2,0.4-0.3,0.5c-0.1,0.1-0.3,0.3-0.5,0.3c-0.2,0.1-0.4,0.1-0.6,0.1
	h-0.7v1.3H14v-4.5h1.6c0.2,0,0.4,0,0.6,0.1c0.2,0.1,0.4,0.2,0.5,0.3s0.3,0.3,0.3,0.5c0.1,0.2,0.1,0.4,0.1,0.6
	C17.2,39.7,17.1,39.9,17,40.1z M19.6,39.7c-0.1,0-0.1-0.1-0.2-0.1c-0.1,0-0.2,0-0.3,0c-0.2,0-0.4,0.1-0.5,0.2s-0.2,0.4-0.2,0.7v1.9
	h-0.8v-3.6h0.8v0.5c0.2-0.4,0.5-0.5,0.9-0.5c0.1,0,0.2,0,0.4,0c0.1,0,0.2,0.1,0.3,0.1L19.6,39.7z M23.6,41.3
	c-0.1,0.2-0.2,0.4-0.4,0.6s-0.4,0.3-0.6,0.4s-0.5,0.2-0.7,0.2s-0.5,0-0.7-0.2c-0.2-0.1-0.4-0.2-0.6-0.4c-0.2-0.2-0.3-0.4-0.4-0.6
	S20,40.9,20,40.6s0-0.5,0.1-0.7c0.1-0.2,0.2-0.4,0.4-0.6s0.4-0.3,0.6-0.4c0.2-0.1,0.5-0.2,0.7-0.2s0.5,0,0.7,0.2
	c0.2,0.1,0.4,0.2,0.6,0.4c0.2,0.2,0.3,0.4,0.4,0.6c0.1,0.2,0.1,0.5,0.1,0.7C23.8,40.9,23.7,41.1,23.6,41.3z M27.4,41.8
	c-0.1,0.1-0.2,0.3-0.4,0.4c-0.1,0.1-0.3,0.2-0.5,0.2s-0.4,0.1-0.6,0.1c-0.3,0-0.5,0-0.7-0.2c-0.2-0.1-0.4-0.2-0.6-0.4
	c-0.2-0.2-0.3-0.4-0.4-0.6S24,40.9,24,40.6s0-0.5,0.1-0.7c0.1-0.2,0.2-0.4,0.4-0.6s0.4-0.3,0.6-0.4s0.5-0.2,0.7-0.2
	c0.2,0,0.4,0,0.6,0.1c0.2,0.1,0.3,0.1,0.5,0.2s0.3,0.2,0.4,0.3c0.1,0.1,0.2,0.3,0.3,0.5l-0.8,0.3c-0.1-0.2-0.2-0.4-0.4-0.5
	c-0.2-0.1-0.4-0.2-0.6-0.2c-0.1,0-0.3,0-0.4,0.1s-0.2,0.1-0.3,0.2c-0.1,0.1-0.2,0.2-0.2,0.3c0,0.1-0.1,0.3-0.1,0.4s0,0.3,0.1,0.4
	c0,0.1,0.1,0.2,0.2,0.3s0.2,0.2,0.3,0.2c0.1,0.1,0.3,0.1,0.4,0.1c0.2,0,0.4-0.1,0.6-0.2c0.2-0.1,0.3-0.3,0.4-0.5l0.8,0.3
	C27.6,41.5,27.5,41.7,27.4,41.8z M31.6,40.9h-3c0.1,0.3,0.2,0.5,0.4,0.6c0.2,0.2,0.4,0.2,0.7,0.2c0.2,0,0.4-0.1,0.6-0.2
	c0.2-0.1,0.3-0.3,0.4-0.5l0.7,0.4c-0.2,0.3-0.4,0.5-0.7,0.7s-0.6,0.3-1,0.3c-0.3,0-0.5,0-0.8-0.2c-0.2-0.1-0.4-0.2-0.6-0.4
	c-0.2-0.2-0.3-0.4-0.4-0.6s-0.1-0.5-0.1-0.7c0-0.3,0-0.5,0.1-0.7c0.1-0.2,0.2-0.4,0.4-0.6s0.4-0.3,0.6-0.4c0.2-0.1,0.5-0.2,0.7-0.2
	c0.3,0,0.5,0,0.8,0.1s0.4,0.2,0.6,0.4c0.2,0.2,0.3,0.4,0.4,0.6s0.1,0.5,0.1,0.7L31.6,40.9L31.6,40.9z M34.7,41.7
	c-0.1,0.1-0.2,0.3-0.3,0.4c-0.1,0.1-0.3,0.2-0.5,0.3c-0.2,0.1-0.4,0.1-0.7,0.1c-0.4,0-0.7-0.1-1-0.2c-0.3-0.2-0.5-0.4-0.6-0.7
	l0.8-0.4c0.1,0.2,0.2,0.3,0.3,0.4c0.2,0.1,0.3,0.1,0.5,0.1c0.2,0,0.4,0,0.5-0.1s0.2-0.2,0.2-0.3c0-0.1,0-0.1-0.1-0.2
	s-0.1-0.1-0.2-0.1c-0.1,0-0.2-0.1-0.3-0.1s-0.2,0-0.3-0.1c-0.2,0-0.3-0.1-0.5-0.1c-0.2,0-0.3-0.1-0.4-0.2S32,40.4,32,40.3
	c-0.1-0.1-0.1-0.3-0.1-0.5c0-0.1,0-0.3,0.1-0.4c0.1-0.1,0.2-0.2,0.3-0.4c0.1-0.1,0.3-0.2,0.5-0.2c0.2-0.1,0.4-0.1,0.6-0.1
	c0.4,0,0.7,0.1,0.9,0.2s0.4,0.3,0.6,0.5L34,39.8c-0.1-0.1-0.2-0.2-0.3-0.3s-0.3-0.1-0.5-0.1c-0.2,0-0.3,0-0.4,0.1
	c-0.1,0.1-0.1,0.2-0.1,0.3c0,0.1,0.1,0.2,0.2,0.3s0.3,0.1,0.6,0.2c0.2,0,0.3,0.1,0.5,0.1c0.2,0,0.3,0.1,0.4,0.2
	c0.1,0.1,0.2,0.2,0.3,0.3c0.1,0.1,0.1,0.3,0.1,0.5C34.8,41.4,34.8,41.6,34.7,41.7z M38,41.7c-0.1,0.1-0.2,0.3-0.3,0.4
	c-0.1,0.1-0.3,0.2-0.5,0.3c-0.2,0.1-0.4,0.1-0.7,0.1c-0.4,0-0.7-0.1-1-0.2c-0.3-0.2-0.5-0.4-0.6-0.7l0.8-0.4
	c0.1,0.2,0.2,0.3,0.3,0.4c0.2,0.1,0.3,0.1,0.5,0.1c0.2,0,0.4,0,0.5-0.1s0.2-0.2,0.2-0.3c0-0.1,0-0.1-0.1-0.2S37.1,41.1,37,41
	c-0.1,0-0.2-0.1-0.3-0.1s-0.2,0-0.3-0.1c-0.2,0-0.3-0.1-0.5-0.1c-0.2,0-0.3-0.1-0.4-0.2s-0.2-0.2-0.3-0.3c-0.1-0.1-0.1-0.3-0.1-0.5
	c0-0.1,0-0.3,0.1-0.4c0.1-0.1,0.2-0.2,0.3-0.4c0.1-0.1,0.3-0.2,0.5-0.2c0.2-0.1,0.4-0.1,0.6-0.1c0.4,0,0.7,0.1,0.9,0.2
	s0.4,0.3,0.6,0.5l-0.7,0.4c-0.1-0.1-0.2-0.2-0.3-0.3s-0.3-0.1-0.5-0.1c-0.2,0-0.3,0-0.4,0.1C36,39.6,36,39.7,36,39.8
	c0,0.1,0.1,0.2,0.2,0.3s0.3,0.1,0.6,0.2c0.2,0,0.3,0.1,0.5,0.1c0.2,0,0.3,0.1,0.4,0.2c0.1,0.1,0.2,0.2,0.3,0.3
	c0.1,0.1,0.1,0.3,0.1,0.5C38.1,41.4,38,41.6,38,41.7z M41.9,41.3c-0.1,0.2-0.2,0.4-0.4,0.6c-0.2,0.2-0.4,0.3-0.6,0.4
	c-0.2,0.1-0.5,0.2-0.7,0.2s-0.5,0-0.7-0.2s-0.4-0.2-0.6-0.4c-0.2-0.2-0.3-0.4-0.4-0.6c-0.1-0.2-0.2-0.5-0.2-0.7s0-0.5,0.2-0.7
	c0.1-0.2,0.2-0.4,0.4-0.6c0.2-0.2,0.4-0.3,0.6-0.4c0.2-0.1,0.5-0.2,0.7-0.2s0.5,0,0.7,0.2c0.2,0.1,0.4,0.2,0.6,0.4
	c0.2,0.2,0.3,0.4,0.4,0.6c0.1,0.2,0.2,0.5,0.2,0.7C42.1,40.9,42,41.1,41.9,41.3z M44.5,17.7h1.4V25h-1.4V17.7z M44.5,38.8
	c0.1,0,0.2,0.1,0.3,0.1l-0.3,0.8c-0.1,0-0.1-0.1-0.2-0.1c-0.1,0-0.2,0-0.3,0c-0.2,0-0.4,0.1-0.5,0.2c-0.1,0.1-0.2,0.4-0.2,0.7v1.9
	h-0.8v-3.6h0.8v0.5c0.2-0.4,0.5-0.5,0.9-0.5C44.3,38.8,44.5,38.8,44.5,38.8z M42.5,25L42,23.7h-2.8L38.8,25h-1.4l2.6-7.3h1.4
	l2.6,7.3C43.9,25,42.5,25,42.5,25z"/>
<path class="st0" d="M55,3H5C3.9,3,3,3.9,3,5v50c0,1.1,0.9,2,2,2h50c1.1,0,2-0.9,2-2V5C57,3.9,56.1,3,55,3z M52.9,51.3
	c0,0.9-0.8,1.7-1.7,1.7H8.6c-0.9,0-1.7-0.8-1.7-1.7V8.7C6.9,7.8,7.7,7,8.6,7h35.6l8.7,8.7L52.9,51.3L52.9,51.3z M52.9,12.3L47.6,7
	h5.3V12.3z"/>
</svg>
