<?xml version="1.0" encoding="UTF-8"?>
<svg id="OLED_HDR_Pro" data-name="OLED HDR Pro" xmlns="http://www.w3.org/2000/svg" viewBox="0 0 60 60">
  <defs>
    <style>
      .cls-1 {
        fill: #fff;
        stroke-width: 0px;
      }
    </style>
  </defs>
  <path class="cls-1" d="m29.98,13c-4.75,0-9.04,1.95-12.12,5.09-.48-.06-.97-.1-1.47-.1-6.38,0-11.58,4.98-11.96,11.26H0v1.5h4.42c.4,6.27,5.59,11.24,11.96,11.24.49,0,.97-.04,1.45-.1,3.09,3.15,7.39,5.11,12.15,5.11,9.39,0,17-7.61,17-17s-7.61-17-17-17Zm0,32.5c-3.97,0-7.59-1.51-10.33-3.98,5.04-1.42,8.74-6.04,8.74-11.54s-3.69-10.1-8.71-11.53c2.74-2.45,6.35-3.96,10.31-3.96,8.55,0,15.5,6.95,15.5,15.5-.01,8.56-6.96,15.51-15.51,15.51Z"/>
  <rect class="cls-1" x="29.25" width="1.5" height="9.89"/>
  <rect class="cls-1" x="29.25" y="50.11" width="1.5" height="9.89"/>
  <rect class="cls-1" x="11.53" y="7.34" width="1.5" height="9.89" transform="translate(-5.09 12.28) rotate(-45)"/>
  <rect class="cls-1" x="46.97" y="42.77" width="1.5" height="9.89" transform="translate(-19.76 47.72) rotate(-45)"/>
  <rect class="cls-1" x="50.11" y="29.25" width="9.89" height="1.5"/>
  <rect class="cls-1" x="7.34" y="46.97" width="9.89" height="1.5" transform="translate(-30.14 22.66) rotate(-45)"/>
  <rect class="cls-1" x="42.77" y="11.53" width="9.89" height="1.5" transform="translate(5.29 37.34) rotate(-45)"/>
</svg>