<svg xmlns="http://www.w3.org/2000/svg" width="32" height="32" viewBox="0 0 32 32">
    <path style="fill:none" d="M0 0h24v24H0z"/>
    <g data-name="icon">
        <path d="M8.338 16.006a3.621 3.621 0 0 1-1.946-.8 5.376 5.376 0 0 0-.939-.546 6.086 6.086 0 0 0-1.111-.26 3.631 3.631 0 0 1-1.916-.719 3.24 3.24 0 0 1-.751-1.84 5.993 5.993 0 0 0-.285-1.064 5.06 5.06 0 0 0-.571-.9A3.31 3.31 0 0 1 0 8a3.334 3.334 0 0 1 .834-1.862 5.059 5.059 0 0 0 .571-.9A5.819 5.819 0 0 0 1.66 4.19a3.2 3.2 0 0 1 .751-1.833 3.515 3.515 0 0 1 1.916-.719 6.059 6.059 0 0 0 1.127-.323 5.312 5.312 0 0 0 .939-.539A3.57 3.57 0 0 1 8.338 0a3.59 3.59 0 0 1 1.946.8 5.322 5.322 0 0 0 .939.517 5.927 5.927 0 0 0 1.112.273 3.515 3.515 0 0 1 1.916.719 3.2 3.2 0 0 1 .774 1.883 5.279 5.279 0 0 0 .285 1.064 5.06 5.06 0 0 0 .571.9 3.334 3.334 0 0 1 .834 1.861 3.313 3.313 0 0 1-.834 1.861 4.667 4.667 0 0 0-.571.9 5.412 5.412 0 0 0-.285 1.049 3.24 3.24 0 0 1-.751 1.84 3.631 3.631 0 0 1-1.916.719 5.937 5.937 0 0 0-1.112.266 5.376 5.376 0 0 0-.939.546 3.643 3.643 0 0 1-1.968.812zm0-15.481a3.152 3.152 0 0 0-1.63.719 5.783 5.783 0 0 1-1.044.6 6.332 6.332 0 0 1-1.224.3 3.083 3.083 0 0 0-1.623.611A2.8 2.8 0 0 0 2.2 4.312a6.077 6.077 0 0 1-.316 1.164 5.2 5.2 0 0 1-.623 1 2.871 2.871 0 0 0-.751 1.56 2.821 2.821 0 0 0 .751 1.56 5.432 5.432 0 0 1 .623 1 6.147 6.147 0 0 1 .316 1.17 2.858 2.858 0 0 0 .616 1.56 3.157 3.157 0 0 0 1.623.582 6.9 6.9 0 0 1 1.224.3 5.784 5.784 0 0 1 1.044.6 3.067 3.067 0 0 0 1.63.719 3.121 3.121 0 0 0 1.63-.719 5.541 5.541 0 0 1 1.044-.6 6.821 6.821 0 0 1 1.217-.3 3.157 3.157 0 0 0 1.63-.582 2.858 2.858 0 0 0 .616-1.56 5.64 5.64 0 0 1 .316-1.172 5.432 5.432 0 0 1 .624-1 2.9 2.9 0 0 0 .751-1.56 2.927 2.927 0 0 0-.751-1.56 5.2 5.2 0 0 1-.624-1 5.551 5.551 0 0 1-.316-1.164 2.8 2.8 0 0 0-.616-1.56 3.087 3.087 0 0 0-1.63-.589 6.23 6.23 0 0 1-1.217-.3 5.541 5.541 0 0 1-1.044-.6 3.179 3.179 0 0 0-1.63-.74z" transform="translate(3.643 .615)" style="stroke:#010101;stroke-width:.5px;fill:#1f1c16"/>
        <path d="m4.064 8.675-1.39-2.9L0 7.719 1.916 0l.533.122L.894 6.411l2-1.445L3.9 7.058l1.4-5.635.533.122z" transform="translate(5.326 14.709)" style="stroke:#010101;stroke-width:.5px;fill:#1f1c16"/>
        <path data-name="Path" d="M1.638 8.668 0 1.4l.541-.108 1.3 5.75L2.96 4.794l1.886 1.6L3.425.108 3.959 0l1.78 7.856-2.6-2.2z" transform="translate(13.085 14.702)" style="stroke:#010101;stroke-width:.5px;fill:#1f1c16"/>
        <path data-name="Path" d="M.849 6.264H4v.654H.083v-.654l.338-.381a2.662 2.662 0 0 0 .631-1.826 2.017 2.017 0 0 0 0-.244H0v-.625h.931a3.362 3.362 0 0 0-.21-.51A3.3 3.3 0 0 1 .5 2.16a1.813 1.813 0 0 1-.068-.532A1.483 1.483 0 0 1 .931.435 2.035 2.035 0 0 1 2.314 0a2.376 2.376 0 0 1 1.705.6l-.383.6A1.863 1.863 0 0 0 2.314.7a1.169 1.169 0 0 0-.8.237.849.849 0 0 0-.27.676 1.325 1.325 0 0 0 .06.4 4.956 4.956 0 0 0 .188.474 6.974 6.974 0 0 1 .255.719h1.641v.625H1.825v.129a3.107 3.107 0 0 1-.977 2.3z" transform="translate(9.976 5.154)" style="stroke:#010101;stroke-width:.5px"/>
    </g>
</svg>
