<svg xmlns="http://www.w3.org/2000/svg" width="32" height="32" viewBox="0 0 32 32">
    <path data-name="Shopping/Finance [Frame Background]" style="fill:none" d="M0 0h24v24H0z"/>
    <path d="M0 0h24v24H0z" style="fill:none"/>
    <path d="M22 22.875H4.134a3.313 3.313 0 0 1-3.009-3.544V4.313a3.139 3.139 0 0 1 3.08-3.188h16.056a.875.875 0 0 1 .875.875v4.25H22a.875.875 0 0 1 .875.875V22a.875.875 0 0 1-.875.875zM2.375 6.87v12.461a2.083 2.083 0 0 0 1.759 2.294h17.491V17.75h-4.5a3.188 3.188 0 0 1 0-6.375h4.5V7.5H4.205a2.979 2.979 0 0 1-1.829-.63zm14.75 5.755a1.938 1.938 0 0 0 0 3.875h4.5v-3.875zM4.205 2.375a1.888 1.888 0 0 0-1.829 1.938A1.888 1.888 0 0 0 4.205 6.25h15.682V2.375z"/>
</svg>
