<svg xmlns="http://www.w3.org/2000/svg" width="32" height="32" viewBox="0 0 32 32">
    <path data-name="Icon [Frame Background]" style="fill:none" d="M0 0h24v24H0z"/>
    <path d="M0 0h24v24H0z" style="fill:none"/>
    <path d="M16.241 17.438v1.025h-2.458v1.155h1.8v1.02h-1.8v1.27h2.567v1.03h-3.767v-5.5z"/>
    <path data-name="Path" d="M20.766 17.438v1.025h-2.458v1.155h1.8v1.02h-1.8v1.27h2.567v1.03h-3.767v-5.5zM6.962 17.438v1.025H4.575v1.322h1.934v1.025H4.575v2.128h-1.2v-5.5z"/>
    <path d="M8.804 22.933h-1.2v-5.5h2.079a2 2 0 0 1 1.421.479 1.765 1.765 0 0 1 .5 1.341 1.975 1.975 0 0 1-.26 1.048 1.533 1.533 0 0 1-.755.623l1.391 2.009h-1.415l-1.161-1.842h-.6v1.842zm0-4.5v1.685h.883a.654.654 0 0 0 .528-.208.958.958 0 0 0 .175-.627c0-.559-.247-.843-.735-.843z"/>
    <path data-name="Subtraction" d="M17.375 16.438a2.75 2.75 0 0 1-2.725-2.375H8.6a2.751 2.751 0 0 1-5.45 0H1.375a.875.875 0 0 1-.875-.827V1.938a.875.875 0 0 1 .827-.875h13.548a.875.875 0 0 1 .874.827v2.173h4.1a2.2 2.2 0 0 1 1.329.475 2.218 2.218 0 0 1 .8 1.167l.016.062 1.458 6.315a1.579 1.579 0 0 1-1.519 1.981H20.1a2.749 2.749 0 0 1-2.725 2.375zm0-4.5a1.752 1.752 0 1 0 1.237.513 1.752 1.752 0 0 0-1.237-.513zm-11.5 0a1.752 1.752 0 1 0 1.237.513 1.752 1.752 0 0 0-1.237-.513zm11.5-1a2.747 2.747 0 0 1 2.608 1.875h1.892a.385.385 0 0 0 .306-.116.358.358 0 0 0 .061-.3l-.007-.037-.617-2.673h-3.266a.7.7 0 0 1-.509-.22.806.806 0 0 1-.217-.514v-1.99a.812.812 0 0 1 .19-.527.7.7 0 0 1 .492-.25h2.5l-.033-.141a.94.94 0 0 0-.327-.5.993.993 0 0 0-.55-.236H15.75v6.156a2.728 2.728 0 0 1 1.625-.53zm-11.5 0a2.751 2.751 0 0 1 2.608 1.875H14.5v-10.5H1.75v10.5h1.517a2.747 2.747 0 0 1 2.608-1.875zm12.75-3.75v1.5h2.762l-.347-1.5z"/>
</svg>
