<?xml version="1.0" standalone="no"?>
<!DOCTYPE svg PUBLIC "-//W3C//DTD SVG 20010904//EN"
 "http://www.w3.org/TR/2001/REC-SVG-20010904/DTD/svg10.dtd">
<svg version="1.0" xmlns="http://www.w3.org/2000/svg"
 width="1024.000000pt" height="1024.000000pt" viewBox="0 0 1024.000000 1024.000000"
 preserveAspectRatio="xMidYMid meet">
<metadata>
Created by potrace 1.14, written by Peter Selinger 2001-2017
</metadata>
<g transform="translate(0.000000,1024.000000) scale(0.100000,-0.100000)"
fill="#000000" stroke="none">
<path d="M4790 5910 c-3 -345 1 -1584 5 -1588 6 -6 292 -9 318 -4 16 4 17 51
17 821 l0 816 -170 0 -170 0 0 -45z"/>
<path d="M5495 5930 c-202 -45 -222 -308 -29 -383 132 -51 295 43 296 171 1
68 -2 78 -33 125 -46 70 -144 107 -234 87z"/>
<path d="M1367 5914 c-1 -1 -29 -4 -62 -7 -177 -16 -333 -85 -468 -207 -113
-102 -215 -314 -231 -485 -3 -22 -5 -40 -6 -40 -1 0 -3 -33 -4 -72 -1 -40 1
-73 4 -73 3 0 7 -17 8 -37 5 -97 52 -237 110 -331 99 -161 227 -261 411 -322
372 -123 780 10 967 315 81 133 123 299 118 475 -6 235 -86 427 -239 573 -113
108 -285 186 -444 202 -67 7 -160 12 -164 9z m148 -359 c265 -70 393 -402 263
-682 -34 -74 -141 -174 -215 -202 -193 -72 -407 1 -509 174 -73 126 -89 294
-39 435 63 179 218 290 397 285 40 -1 87 -5 103 -10z"/>
<path d="M2820 5414 c-89 -15 -138 -31 -211 -73 -101 -57 -190 -165 -228 -277
-28 -83 -31 -106 -31 -209 -1 -262 160 -480 395 -536 28 -6 59 -15 70 -19 32
-11 183 -4 263 13 95 21 205 75 271 135 l54 47 -88 75 c-48 41 -95 82 -104 90
-43 41 -49 43 -73 20 -67 -65 -208 -91 -294 -55 -91 38 -147 133 -145 243 3
146 96 242 237 243 71 1 143 -24 188 -66 l38 -35 82 67 c44 37 84 71 87 75 3
5 20 19 37 31 l32 24 -58 55 c-57 55 -138 104 -220 132 -23 8 -45 15 -47 15
-3 -1 -23 2 -44 6 -71 12 -135 12 -211 -1z"/>
<path d="M7570 5415 c-72 -15 -141 -50 -192 -97 -23 -21 -42 -38 -43 -38 -1 0
-1 25 0 55 1 31 -2 58 -8 62 -13 8 -325 8 -334 0 -10 -11 -9 -1068 2 -1075 16
-10 326 -8 333 3 3 5 7 147 7 315 1 293 2 307 24 355 28 63 55 91 99 106 89
29 159 1 195 -80 20 -43 21 -65 23 -369 1 -178 5 -326 8 -329 8 -9 308 -10
326 -2 13 6 15 47 15 291 -1 155 3 303 7 328 20 110 80 170 172 172 78 1 134
-53 152 -147 4 -21 7 -174 7 -340 0 -165 4 -302 8 -305 4 -3 81 -5 171 -4
l163 0 1 358 c1 386 -5 453 -50 551 -47 102 -125 164 -240 190 -142 31 -320
-15 -419 -109 l-38 -36 -49 50 c-27 28 -70 59 -96 71 -42 18 -71 24 -164 33
-14 1 -50 -3 -80 -9z"/>
<path d="M3516 5400 c-1 -3 -1 -171 -1 -375 2 -395 8 -451 57 -549 43 -85 139
-153 242 -172 140 -25 264 10 368 104 l40 36 -2 -55 c-1 -30 -1 -58 -1 -64 1
-12 327 -13 338 -1 5 4 8 248 9 542 0 532 0 534 -20 535 -79 4 -318 1 -322 -4
-4 -3 -7 -144 -9 -314 -1 -184 -7 -321 -13 -340 -28 -86 -92 -134 -177 -134
-75 0 -118 26 -142 89 -16 42 -18 82 -18 374 l0 328 -30 1 c-129 4 -317 3
-319 -1z"/>
<path d="M5947 5398 c-14 -9 -16 -266 -2 -271 6 -2 101 -3 213 -3 111 1 202
-2 202 -7 0 -4 -11 -20 -24 -35 -13 -15 -72 -85 -131 -157 -58 -71 -114 -139
-123 -150 -9 -11 -55 -67 -103 -125 l-85 -105 1 -108 c0 -69 4 -110 12 -115 8
-5 852 -8 896 -3 4 1 7 63 7 140 l0 138 -209 -1 c-116 -1 -219 1 -231 4 -21 5
-21 6 -3 25 10 11 52 61 93 110 42 50 85 101 97 115 12 14 78 93 147 175 l126
150 -2 113 c0 61 -3 112 -7 113 -40 5 -866 2 -874 -3z"/>
<path d="M5540 5331 l-165 -67 0 -472 c0 -311 3 -473 10 -474 9 -3 274 -2 316
1 15 1 16 52 16 541 0 297 -2 540 -6 539 -3 0 -80 -31 -171 -68z"/>
<path d="M8884 5369 c-11 -18 9 -28 66 -31 l55 -3 1 -150 c1 -82 2 -156 3
-162 0 -7 12 -13 25 -13 l24 0 0 153 c0 83 1 158 1 165 1 8 20 12 61 12 53 0
60 2 60 20 0 19 -7 20 -144 20 -94 0 -147 -4 -152 -11z"/>
<path d="M9239 5353 c-1 -35 -1 -325 0 -335 1 -5 12 -8 26 -8 l24 0 3 135 3
135 55 -135 c69 -169 76 -171 132 -35 21 52 44 107 49 123 20 51 26 27 25 -98
l-1 -126 25 3 25 3 1 183 1 182 -34 0 c-30 0 -36 -4 -49 -37 -9 -21 -22 -51
-29 -68 -8 -16 -27 -63 -43 -104 l-29 -74 -17 44 c-9 24 -36 88 -58 142 -41
95 -42 97 -75 97 -29 0 -33 -3 -34 -27z"/>
</g>
</svg>
